<svg width="99" height="33" viewBox="0 0 99 33" fill="none" xmlns="http://www.w3.org/2000/svg">
<g>
<path d="M60.4302 16.3201H60.3202C57.0702 16.3001 53.8202 16.2501 50.5802 16.2501C48.0902 16.2001 45.5402 16.7501 44.0402 19.3001C43.5602 20.1301 43.5902 20.5601 43.5902 21.4801C43.5902 23.1901 43.5902 24.9001 43.5902 26.6101C43.5902 27.6201 43.5602 28.1501 44.1402 29.0301C45.8002 31.5401 48.4602 32.1801 50.5502 32.2701C53.9102 32.2701 57.2702 32.2701 60.6402 32.2701C63.1702 32.4501 66.9902 30.2001 66.9902 27.3801C66.9902 27.1201 66.9902 26.8401 66.9902 26.5701C64.7502 26.5701 62.5102 26.5701 60.2702 26.5701C60.1802 27.7401 58.3802 28.1201 57.4602 28.1201C56.1002 28.1201 54.7402 28.1201 53.3702 28.1201C52.0402 28.1201 49.7902 27.1401 49.7902 25.5501C49.7902 24.6401 49.7902 23.7301 49.7902 22.8201C49.7902 21.5201 51.3402 20.5501 52.5102 20.5501C54.1002 20.5501 55.6902 20.5501 57.2802 20.5501C58.9502 20.5501 60.7202 21.1001 60.8102 23.1401C62.8602 23.1401 64.9202 23.1401 66.9802 23.1401C66.9802 21.7401 67.2302 20.1801 66.3202 19.0101C64.8902 17.1601 62.8202 16.2301 60.4302 16.3201Z" fill="#3C3C3B"/>
<path d="M22.9102 32.2803L40.5602 32.2903V28.3303H29.6302V25.8803H40.0602V22.3103H29.6302V20.5103H40.5902V16.3203L22.9102 16.3503V32.2803Z" fill="#3C3C3B"/>
<path d="M0 19.9001H6.12V32.3101H13.29V19.9001H19.93V16.3301H0V19.9001Z" fill="#3C3C3B"/>
<path d="M80.2002 5.61012L76.2502 0.120117H69.9502L77.6402 9.38012V15.0201H83.6602V9.47012L91.4702 0.140117H85.1302L80.2002 5.61012Z" fill="#3C3C3B"/>
<path d="M60.2198 0.139648H57.9198H47.5098C47.5098 5.10965 47.5098 10.0796 47.5098 15.0496H57.9198H60.0698C61.9598 15.0496 68.2598 15.1496 68.3798 11.2896L68.4098 10.2496L68.4198 5.97965C68.4198 5.04965 68.5498 3.51965 68.0298 2.71965C66.5698 0.479648 62.7198 0.139648 60.2198 0.139648ZM61.7998 9.38965C61.7998 11.1296 60.3998 11.2496 59.0198 11.2496H57.9198H54.0398C54.0398 8.95965 54.0398 6.66965 54.0398 4.37965C54.0398 4.26965 54.0398 4.14965 54.0398 4.03965C54.1498 4.03965 54.2598 4.03965 54.3698 4.03965H57.9198H59.2898C60.8098 4.03965 61.7998 4.31965 61.7998 6.15965C61.7998 7.23965 61.7998 8.31965 61.7998 9.38965Z" fill="#3C3C3B"/>
<path d="M44.6601 5.05012C44.6601 4.82012 44.6601 4.60012 44.6601 4.37012C44.6601 0.970117 40.5201 0.120117 37.9501 0.120117H33.8601H29.3701C26.3101 0.120117 23.1201 1.12012 22.8501 4.43012L22.8101 4.97012C22.8301 6.73012 22.7701 8.70012 22.8901 10.4701C23.0901 13.5001 26.1401 14.8801 29.0901 15.0901H33.8701H38.7601C41.1901 15.0001 44.6601 13.4901 44.6601 10.5601C44.6601 8.71012 44.6601 6.88012 44.6601 5.05012ZM38.6401 8.49012C38.4101 10.2501 36.9901 10.9301 35.3901 10.9301H33.8701H31.9001C30.3901 10.7901 29.1701 9.87012 29.0501 8.46012C29.0501 7.92012 29.0501 7.37012 29.0501 6.83012C29.0501 5.20012 30.4001 4.33012 31.8701 4.33012H33.8701H35.4301C37.3101 4.33012 38.3701 4.71012 38.6901 6.81012C38.6901 7.37012 38.7201 7.93012 38.6401 8.49012Z" fill="#3C3C3B"/>
<path d="M16.75 7.07C17.7 6.91 18.56 6.8 19.33 5.97C20.06 5.19 20.59 3.41 19.81 1.91C18.63 -0.34 15.07 0.08 12.57 0.01L12.08 0H9.93H0C0 5.03 0 10.07 0 15.11H9.93H12.19C12.81 15.11 13.43 15.11 14.06 15.11C15.44 15.06 17.13 15.24 18.38 14.62C20.32 13.66 20.66 10.6 19.71 8.86C19.2 7.9 17.42 7.16 16.75 7.07ZM13.17 10.71C13.18 11.64 12.3 11.67 11.64 11.67H9.93H6.68C6.68 10.74 6.68 9.81 6.68 8.88C7.77 8.88 8.85 8.87 9.93 8.87C10.58 8.87 11.24 8.87 11.89 8.87C12.41 8.87 13.13 9.01 13.17 9.74C13.19 10.06 13.17 10.39 13.17 10.71ZM13.17 4.67C13.13 5.32 12.9 5.63 11.75 5.68H9.93H6.68C6.68 4.96 6.68 4.24 6.68 3.52H9.93H11.77C12.51 3.48 13.12 3.79 13.18 4.33C13.18 4.44 13.17 4.55 13.17 4.67Z" fill="#3C3C3B"/>
<path d="M84.1102 21.6804H76.5302V16.3604H69.9502V32.3004H76.5302V25.3304H84.1102V32.3004H91.3902V16.3604H84.1102V21.6804Z" fill="#3C3C3B"/>
<path d="M96.9298 19.5796C96.8298 19.4396 96.7598 19.3496 96.7098 19.3096C96.6598 19.2696 96.5798 19.2196 96.4698 19.1596C96.7198 19.1196 96.9198 19.0496 97.0498 18.9296C97.2298 18.7696 97.3198 18.5796 97.3198 18.3396C97.3198 18.1196 97.2298 17.9296 97.0598 17.7796C96.8798 17.6296 96.5998 17.5596 96.1898 17.5596H96.0598H95.0698V20.4396H95.4398V19.1996H95.6798C95.8298 19.1996 95.9598 19.2096 96.0598 19.2396C96.1298 19.2596 96.1798 19.2796 96.2298 19.3096C96.3398 19.3796 96.4998 19.5996 96.7098 19.9696L96.9898 20.4496H97.4498L97.1598 19.9196C97.0998 19.8296 97.0298 19.7196 96.9298 19.5796ZM96.0598 18.8696C95.9798 18.8696 95.8998 18.8696 95.8098 18.8696H95.4498V17.8696H95.9898H96.0598C96.4398 17.8796 96.6698 17.9196 96.7698 18.0196C96.8698 18.1196 96.9298 18.2396 96.9298 18.3796C96.9298 18.4696 96.8998 18.5596 96.8398 18.6496C96.7798 18.7396 96.6998 18.7896 96.6098 18.8196C96.4998 18.8496 96.3198 18.8696 96.0598 18.8696Z" fill="#3C3C3B"/>
<path d="M97.9501 17.2099C97.4301 16.6899 96.8002 16.4199 96.0702 16.4199C95.3302 16.4199 94.7102 16.6799 94.1902 17.2099C93.6702 17.7299 93.4102 18.3599 93.4102 19.0999C93.4102 19.8399 93.6702 20.4699 94.1902 20.9899C94.7102 21.5099 95.3402 21.7799 96.0702 21.7799C96.8102 21.7799 97.4301 21.5199 97.9501 20.9899C98.4701 20.4699 98.7302 19.8399 98.7302 19.0999C98.7302 18.3599 98.4701 17.7299 97.9501 17.2099ZM97.7402 20.7899C97.2802 21.2599 96.7202 21.4899 96.0702 21.4899C95.4102 21.4899 94.8602 21.2599 94.4002 20.7899C93.9402 20.3199 93.7102 19.7599 93.7102 19.1099C93.7102 18.4499 93.9402 17.8899 94.4002 17.4299C94.8602 16.9599 95.4202 16.7299 96.0702 16.7299C96.7202 16.7299 97.2802 16.9599 97.7402 17.4299C98.2002 17.8899 98.4302 18.4599 98.4302 19.1099C98.4302 19.7599 98.2002 20.3199 97.7402 20.7899Z" fill="#3C3C3B"/>
</g>
<defs>
<clipPath id="clip0">
<rect width="98.73" height="32.31" fill="white"/>
</clipPath>
</defs>
</svg>
